<svg width="32" height="32" viewBox="0 0 32 32" fill="none" xmlns="http://www.w3.org/2000/svg">
<path d="M28.6953 22.2014H2.71968C2.37522 22.2014 2.04487 22.3382 1.8013 22.5818C1.55773 22.8254 1.4209 23.1557 1.4209 23.5002C1.4209 23.8446 1.55773 24.175 1.8013 24.4185C2.04487 24.6621 2.37522 24.7989 2.71968 24.7989H28.6953C29.0397 24.7989 29.3701 24.6621 29.6137 24.4185C29.8572 24.175 29.9941 23.8446 29.9941 23.5002C29.9941 23.1557 29.8572 22.8254 29.6137 22.5818C29.3701 22.3382 29.0397 22.2014 28.6953 22.2014ZM28.6953 27.3965H2.71968C2.37522 27.3965 2.04487 27.5333 1.8013 27.7769C1.55773 28.0205 1.4209 28.3508 1.4209 28.6953C1.4209 29.0397 1.55773 29.3701 1.8013 29.6137C2.04487 29.8572 2.37522 29.9941 2.71968 29.9941H28.6953C29.0397 29.9941 29.3701 29.8572 29.6137 29.6137C29.8572 29.3701 29.9941 29.0397 29.9941 28.6953C29.9941 28.3508 29.8572 28.0205 29.6137 27.7769C29.3701 27.5333 29.0397 27.3965 28.6953 27.3965ZM7.9148 9.21358C7.65793 9.21358 7.40682 9.28975 7.19324 9.43247C6.97965 9.57518 6.81319 9.77802 6.71488 10.0153C6.61658 10.2527 6.59086 10.5138 6.64098 10.7657C6.69109 11.0177 6.81479 11.2491 6.99643 11.4307C7.17806 11.6124 7.40948 11.7361 7.66142 11.7862C7.91336 11.8363 8.1745 11.8106 8.41182 11.7123C8.64914 11.614 8.85199 11.4475 8.9947 11.2339C9.13741 11.0203 9.21358 10.7692 9.21358 10.5124C9.21358 10.1679 9.07675 9.83755 8.83318 9.59399C8.58961 9.35042 8.25926 9.21358 7.9148 9.21358ZM26.0977 1.4209H5.31724C4.28387 1.4209 3.29282 1.8314 2.56211 2.56211C1.8314 3.29282 1.4209 4.28387 1.4209 5.31724V15.7075C1.4209 16.7409 1.8314 17.7319 2.56211 18.4626C3.29282 19.1933 4.28387 19.6038 5.31724 19.6038H26.0977C27.1311 19.6038 28.1222 19.1933 28.8529 18.4626C29.5836 17.7319 29.9941 16.7409 29.9941 15.7075V5.31724C29.9941 4.28387 29.5836 3.29282 28.8529 2.56211C28.1222 1.8314 27.1311 1.4209 26.0977 1.4209ZM27.3965 15.7075C27.3965 16.0519 27.2597 16.3823 27.0161 16.6259C26.7725 16.8694 26.4422 17.0063 26.0977 17.0063H5.31724C4.97278 17.0063 4.64243 16.8694 4.39886 16.6259C4.15529 16.3823 4.01846 16.0519 4.01846 15.7075V5.31724C4.01846 4.97278 4.15529 4.64243 4.39886 4.39886C4.64243 4.15529 4.97278 4.01846 5.31724 4.01846H26.0977C26.4422 4.01846 26.7725 4.15529 27.0161 4.39886C27.2597 4.64243 27.3965 4.97278 27.3965 5.31724V15.7075ZM15.7075 6.61602C14.9369 6.61602 14.1835 6.84454 13.5428 7.27267C12.902 7.70081 12.4026 8.30933 12.1077 9.0213C11.8128 9.73326 11.7357 10.5167 11.886 11.2725C12.0364 12.0283 12.4074 12.7226 12.9524 13.2675C13.4973 13.8124 14.1915 14.1835 14.9473 14.3338C15.7032 14.4842 16.4866 14.407 17.1986 14.1121C17.9105 13.8172 18.519 13.3178 18.9472 12.6771C19.3753 12.0363 19.6038 11.283 19.6038 10.5124C19.6038 9.47899 19.1933 8.48794 18.4626 7.75723C17.7319 7.02653 16.7409 6.61602 15.7075 6.61602ZM15.7075 11.8111C15.4506 11.8111 15.1995 11.735 14.9859 11.5923C14.7723 11.4495 14.6059 11.2467 14.5076 11.0094C14.4093 10.7721 14.3835 10.5109 14.4337 10.259C14.4838 10.007 14.6075 9.77562 14.7891 9.59399C14.9707 9.41235 15.2022 9.28865 15.4541 9.23854C15.706 9.18842 15.9672 9.21414 16.2045 9.31245C16.4418 9.41075 16.6447 9.57722 16.7874 9.7908C16.9301 10.0044 17.0063 10.2555 17.0063 10.5124C17.0063 10.8568 16.8694 11.1872 16.6259 11.4307C16.3823 11.6743 16.0519 11.8111 15.7075 11.8111ZM23.5002 9.21358C23.2433 9.21358 22.9922 9.28975 22.7786 9.43247C22.565 9.57518 22.3986 9.77802 22.3003 10.0153C22.202 10.2527 22.1762 10.5138 22.2263 10.7657C22.2765 11.0177 22.4002 11.2491 22.5818 11.4307C22.7634 11.6124 22.9948 11.7361 23.2468 11.7862C23.4987 11.8363 23.7599 11.8106 23.9972 11.7123C24.2345 11.614 24.4374 11.4475 24.5801 11.2339C24.7228 11.0203 24.7989 10.7692 24.7989 10.5124C24.7989 10.1679 24.6621 9.83755 24.4185 9.59399C24.175 9.35042 23.8446 9.21358 23.5002 9.21358Z" fill="#6C63DD"/>
</svg>
