<svg width="36" height="36" viewBox="0 0 36 36" fill="none" xmlns="http://www.w3.org/2000/svg">
<g clip-path="url(#clip0_98_5792)">
<path d="M23.9803 23.4796C23.9803 21.885 19.4577 20.5934 13.8787 20.5934M23.9803 23.4796C23.9803 25.0742 19.4577 26.3658 13.8787 26.3658C8.29972 26.3658 3.77707 25.0742 3.77707 23.4796M23.9803 23.4796V30.6042C23.9803 32.2478 19.4577 33.5812 13.8787 33.5812C8.29972 33.5812 3.77707 32.2493 3.77707 30.6042V23.4796M23.9803 23.4796C29.4987 23.4796 34.082 22.0553 34.082 20.5934V6.16255M13.8787 20.5934C8.29972 20.5934 3.77707 21.885 3.77707 23.4796M13.8787 20.5934C7.50313 20.5934 2.33398 19.1691 2.33398 17.7073V10.4918M13.8787 7.60564C7.50313 7.60564 2.33398 8.8972 2.33398 10.4918M2.33398 10.4918C2.33398 12.0864 7.50313 13.378 13.8787 13.378C13.8787 14.8398 18.5731 16.2642 24.0914 16.2642C29.6084 16.2642 34.082 14.8398 34.082 13.378M34.082 6.16255C34.082 4.56793 29.6084 3.27637 24.0914 3.27637C18.5731 3.27637 14.1009 4.56793 14.1009 6.16255M34.082 6.16255C34.082 7.75716 29.6084 9.04873 24.0914 9.04873C18.5745 9.04873 14.1009 7.75716 14.1009 6.16255M14.1009 6.16255V20.833" stroke="#6C63DD" stroke-width="2.42439"/>
</g>
<defs>
<clipPath id="clip0_98_5792">
<rect width="34.6341" height="34.6341" fill="white" transform="translate(0.890625 0.390625)"/>
</clipPath>
</defs>
</svg>
