<svg width="32" height="32" viewBox="0 0 32 32" fill="none" xmlns="http://www.w3.org/2000/svg">
<g clip-path="url(#clip0_98_5741)">
<path d="M25.4047 18.0447C27.4689 16.0221 29.5608 13.5977 29.5608 10.4252C29.5608 8.40436 28.7581 6.4663 27.3291 5.03737C25.9002 3.60843 23.9621 2.80566 21.9413 2.80566C19.5031 2.80566 17.7852 3.49835 15.7072 5.5764C13.6291 3.49835 11.9113 2.80566 9.47303 2.80566C7.45221 2.80566 5.51415 3.60843 4.08522 5.03737C2.65628 6.4663 1.85352 8.40436 1.85352 10.4252C1.85352 13.6115 3.93156 16.0359 6.00961 18.0447L15.7072 27.7422L25.4047 18.0447Z" stroke="#6C63DD" stroke-width="2.77073" stroke-linecap="round" stroke-linejoin="round"/>
<path d="M15.7077 5.57617L11.607 9.67685C11.3255 9.95629 11.1021 10.2887 10.9497 10.6548C10.7972 11.021 10.7188 11.4137 10.7188 11.8103C10.7188 12.2069 10.7972 12.5997 10.9497 12.9658C11.1021 13.332 11.3255 13.6643 11.607 13.9438C12.743 15.0798 14.5578 15.1213 15.7631 14.0408L18.6308 11.4086C19.3496 10.7563 20.2855 10.395 21.2561 10.395C22.2267 10.395 23.1626 10.7563 23.8814 11.4086L27.982 15.0936M24.0199 19.4298L21.2492 16.6591M19.8638 23.5859L17.0931 20.8152" stroke="#6C63DD" stroke-width="2.77073" stroke-linecap="round" stroke-linejoin="round"/>
</g>
<defs>
<clipPath id="clip0_98_5741">
<rect width="31.1707" height="31.1707" fill="white" transform="translate(0.12207 0.12207)"/>
</clipPath>
</defs>
</svg>
