<svg width="36" height="36" viewBox="0 0 36 36" fill="none" xmlns="http://www.w3.org/2000/svg">
<path d="M15.5967 10.5452L16.267 9.81276V14.2692C16.267 14.5984 16.3978 14.9142 16.6306 15.147C16.8634 15.3798 17.1792 15.5106 17.5084 15.5106C17.8376 15.5106 18.1534 15.3798 18.3861 15.147C18.6189 14.9142 18.7497 14.5984 18.7497 14.2692V9.81276L19.4201 10.4955C19.5327 10.6228 19.6704 10.7255 19.8244 10.7974C19.9784 10.8693 20.1456 10.9088 20.3155 10.9135C20.4854 10.9182 20.6545 10.8879 20.8122 10.8245C20.9699 10.7611 21.113 10.6661 21.2324 10.5452C21.3488 10.4298 21.4411 10.2925 21.5042 10.1412C21.5672 9.98992 21.5996 9.82767 21.5996 9.66379C21.5996 9.49992 21.5672 9.33767 21.5042 9.1864C21.4411 9.03513 21.3488 8.89783 21.2324 8.78243L18.3897 5.93974C18.2717 5.82673 18.1325 5.73814 17.9801 5.67906C17.6779 5.5549 17.3389 5.5549 17.0367 5.67906C16.8843 5.73814 16.7451 5.82673 16.627 5.93974L13.7843 8.73278C13.544 8.97312 13.409 9.29908 13.409 9.63897C13.409 9.97885 13.544 10.3048 13.7843 10.5452C14.0247 10.7855 14.3506 10.9205 14.6905 10.9205C15.0304 10.9205 15.3564 10.7855 15.5967 10.5452ZM17.5084 17.9933C16.7718 17.9933 16.0518 18.2117 15.4394 18.6209C14.827 19.0301 14.3497 19.6117 14.0678 20.2922C13.7859 20.9727 13.7122 21.7214 13.8559 22.4438C13.9996 23.1662 14.3543 23.8298 14.8751 24.3506C15.3959 24.8714 16.0595 25.2261 16.7819 25.3698C17.5043 25.5135 18.253 25.4398 18.9335 25.1579C19.614 24.876 20.1956 24.3987 20.6048 23.7863C21.014 23.1739 21.2324 22.4539 21.2324 21.7173C21.2324 20.7296 20.8401 19.7824 20.1417 19.084C19.4433 18.3856 18.4961 17.9933 17.5084 17.9933ZM17.5084 22.9587C17.2629 22.9587 17.0229 22.8859 16.8187 22.7495C16.6146 22.6131 16.4555 22.4192 16.3615 22.1924C16.2676 21.9655 16.243 21.7159 16.2909 21.4751C16.3388 21.2343 16.457 21.0132 16.6306 20.8396C16.8042 20.6659 17.0254 20.5477 17.2662 20.4998C17.507 20.4519 17.7566 20.4765 17.9834 20.5705C18.2103 20.6644 18.4041 20.8235 18.5405 21.0277C18.6769 21.2318 18.7497 21.4718 18.7497 21.7173C18.7497 22.0465 18.6189 22.3623 18.3861 22.5951C18.1534 22.8279 17.8376 22.9587 17.5084 22.9587ZM8.81892 21.7173C8.81892 21.9628 8.89173 22.2028 9.02813 22.407C9.16453 22.6111 9.3584 22.7702 9.58523 22.8642C9.81206 22.9581 10.0617 22.9827 10.3024 22.9348C10.5432 22.8869 10.7644 22.7687 10.938 22.5951C11.1116 22.4215 11.2299 22.2003 11.2778 21.9595C11.3257 21.7187 11.3011 21.4691 11.2071 21.2423C11.1132 21.0154 10.9541 20.8216 10.7499 20.6852C10.5458 20.5488 10.3058 20.476 10.0603 20.476C9.73105 20.476 9.4153 20.6068 9.18251 20.8396C8.94971 21.0723 8.81892 21.3881 8.81892 21.7173ZM26.1978 21.7173C26.1978 21.4718 26.125 21.2318 25.9886 21.0277C25.8522 20.8235 25.6584 20.6644 25.4315 20.5705C25.2047 20.4765 24.9551 20.4519 24.7143 20.4998C24.4735 20.5477 24.2523 20.6659 24.0787 20.8396C23.9051 21.0132 23.7869 21.2343 23.739 21.4751C23.6911 21.7159 23.7157 21.9655 23.8096 22.1924C23.9036 22.4192 24.0627 22.6131 24.2668 22.7495C24.471 22.8859 24.711 22.9587 24.9565 22.9587C25.2857 22.9587 25.6015 22.8279 25.8343 22.5951C26.0671 22.3623 26.1978 22.0465 26.1978 21.7173ZM27.4392 13.0279H22.4738C22.1446 13.0279 21.8288 13.1586 21.596 13.3914C21.3632 13.6242 21.2324 13.94 21.2324 14.2692C21.2324 14.5984 21.3632 14.9142 21.596 15.147C21.8288 15.3798 22.1446 15.5106 22.4738 15.5106H27.4392C27.7684 15.5106 28.0842 15.6413 28.317 15.8741C28.5498 16.1069 28.6805 16.4227 28.6805 16.7519V26.6827C28.6805 27.012 28.5498 27.3277 28.317 27.5605C28.0842 27.7933 27.7684 27.9241 27.4392 27.9241H7.57757C7.24834 27.9241 6.9326 27.7933 6.6998 27.5605C6.467 27.3277 6.33622 27.012 6.33622 26.6827V16.7519C6.33622 16.4227 6.467 16.1069 6.6998 15.8741C6.9326 15.6413 7.24834 15.5106 7.57757 15.5106H12.543C12.8722 15.5106 13.1879 15.3798 13.4207 15.147C13.6535 14.9142 13.7843 14.5984 13.7843 14.2692C13.7843 13.94 13.6535 13.6242 13.4207 13.3914C13.1879 13.1586 12.8722 13.0279 12.543 13.0279H7.57757C6.58989 13.0279 5.64266 13.4202 4.94427 14.1186C4.24587 14.817 3.85352 15.7642 3.85352 16.7519V26.6827C3.85352 27.6704 4.24587 28.6176 4.94427 29.316C5.64266 30.0144 6.58989 30.4068 7.57757 30.4068H27.4392C28.4269 30.4068 29.3741 30.0144 30.0725 29.316C30.7709 28.6176 31.1632 27.6704 31.1632 26.6827V16.7519C31.1632 15.7642 30.7709 14.817 30.0725 14.1186C29.3741 13.4202 28.4269 13.0279 27.4392 13.0279Z" fill="#6C63DD"/>
</svg>
