<svg width="32" height="32" viewBox="0 0 32 32" fill="none" xmlns="http://www.w3.org/2000/svg">
<path d="M10.1987 14.0943C10.9694 14.0943 11.7227 13.8657 12.3634 13.4376C13.0042 13.0095 13.5036 12.4009 13.7985 11.689C14.0934 10.977 14.1706 10.1936 14.0202 9.43778C13.8699 8.68196 13.4988 7.9877 12.9539 7.44279C12.409 6.89788 11.7147 6.52679 10.9589 6.37644C10.2031 6.2261 9.41964 6.30326 8.70768 6.59817C7.99572 6.89307 7.38719 7.39248 6.95906 8.03323C6.53092 8.67398 6.3024 9.4273 6.3024 10.1979C6.30353 11.2309 6.7144 12.2213 7.44486 12.9518C8.17532 13.6823 9.16572 14.0931 10.1987 14.0943ZM10.1987 8.89914C10.4556 8.89914 10.7067 8.97531 10.9203 9.11802C11.1339 9.26073 11.3004 9.46358 11.3987 9.7009C11.497 9.93822 11.5227 10.1994 11.4726 10.4513C11.4225 10.7032 11.2988 10.9347 11.1171 11.1163C10.9355 11.2979 10.7041 11.4216 10.4521 11.4717C10.2002 11.5219 9.93904 11.4961 9.70172 11.3978C9.4644 11.2995 9.26156 11.1331 9.11885 10.9195C8.97614 10.7059 8.89996 10.4548 8.89996 10.1979C8.90019 9.85353 9.0371 9.52332 9.28062 9.2798C9.52414 9.03628 9.85436 8.89937 10.1987 8.89914ZM21.2181 17.3209C20.4475 17.3209 19.6941 17.5494 19.0534 17.9776C18.4127 18.4057 17.9132 19.0142 17.6183 19.7262C17.3234 20.4382 17.2463 21.2216 17.3966 21.9774C17.547 22.7332 17.918 23.4275 18.463 23.9724C19.0079 24.5173 19.7021 24.8884 20.458 25.0387C21.2138 25.1891 21.9972 25.1119 22.7092 24.817C23.4211 24.5221 24.0296 24.0227 24.4578 23.382C24.8859 22.7412 25.1144 21.9879 25.1144 21.2173C25.1133 20.1842 24.7024 19.1938 23.972 18.4634C23.2415 17.7329 22.2511 17.3221 21.2181 17.3209ZM21.2181 22.516C20.9612 22.516 20.7101 22.4399 20.4965 22.2972C20.2829 22.1544 20.1165 21.9516 20.0182 21.7143C19.9199 21.477 19.8942 21.2158 19.9443 20.9639C19.9944 20.7119 20.1181 20.4805 20.2997 20.2989C20.4814 20.1173 20.7128 19.9936 20.9647 19.9434C21.2167 19.8933 21.4778 19.919 21.7151 20.0174C21.9524 20.1157 22.1553 20.2821 22.298 20.4957C22.4407 20.7093 22.5169 20.9604 22.5169 21.2173C22.5166 21.5617 22.3797 21.8919 22.1362 22.1354C21.8927 22.3789 21.5625 22.5158 21.2181 22.516ZM25.7181 5.69789C25.5976 5.57726 25.4544 5.48157 25.2968 5.41628C25.1393 5.35099 24.9704 5.31738 24.7998 5.31738C24.6293 5.31738 24.4604 5.35099 24.3028 5.41628C24.1453 5.48157 24.0021 5.57726 23.8816 5.69789L5.69864 23.8808C5.57681 24.0011 5.47997 24.1444 5.4137 24.3022C5.34743 24.4601 5.31304 24.6295 5.31251 24.8008C5.31197 24.972 5.3453 25.1416 5.41058 25.2999C5.47586 25.4582 5.5718 25.6021 5.69288 25.7231C5.81396 25.8442 5.95779 25.9401 6.11608 26.0054C6.27438 26.0707 6.44402 26.104 6.61525 26.1035C6.78648 26.1029 6.95591 26.0685 7.11379 26.0022C7.27167 25.936 7.41488 25.8391 7.53519 25.7173L25.7181 7.53437C25.8387 7.4138 25.9344 7.27065 25.9997 7.1131C26.065 6.95555 26.0986 6.78667 26.0986 6.61613C26.0986 6.44559 26.065 6.27671 25.9997 6.11916C25.9344 5.9616 25.8387 5.81846 25.7181 5.69789Z" fill="#6C63DD"/>
</svg>
